<?xml version="1.0" encoding="UTF-8"?>
<svg id="Layer_2" data-name="Layer 2" xmlns="http://www.w3.org/2000/svg" viewBox="0 0 1101.41 335.7">
  <defs>
    <style>
      .cls-1, .cls-2 {
        fill: #063136;
      }

      .cls-3 {
        fill: #05c3c2;
      }

      .cls-4 {
        fill: none;
        stroke: #063136;
        stroke-linecap: round;
        stroke-linejoin: round;
        stroke-width: .6px;
      }

      .cls-2 {
        font-size: 53.55px;
      }

      .cls-2, .cls-5 {
        font-family: Utendo-Light, Utendo;
        font-weight: 300;
      }

      .cls-5 {
        font-size: 225.74px;
      }
    </style>
  </defs>
  <g id="Layer_1-2" data-name="Layer 1">
    <g>
      <text class="cls-5" transform="translate(0 263.69)"><tspan class="cls-1" x="0" y="0">BODY</tspan><tspan class="cls-3" x="595.97" y="0">MINE</tspan></text>
      <text class="cls-2" transform="translate(598.54 321.67)"><tspan x="0" y="0">COSMETIC SURGERY</tspan></text>
      <g>
        <path class="cls-4" d="m800.21,90.69s-23.06-59.68-44.39-90.39"/>
        <path class="cls-4" d="m764.27.3s15.67,3.67,28.1,23.75"/>
        <path class="cls-1" d="m798.33,70.88c1.66,14.8,5.58,25.47,5.73,25.89-.15-.08-3.85-1.89-3.85-1.89-1.39-4.55-3.71-13.45-4.86-23.67-.49-4.32-.74-8.53-.76-12.64,1.35,3.89,2.61,7.99,3.74,12.31Z"/>
        <path class="cls-1" d="m821.98,55.44c-.79,2.79-1.67,5.68-2.67,8.68-1.36,4.08-3.15,8.47-5.04,13.11-2.46,6.01-4.98,12.2-6.67,18.02-1.15.53-2.33,1.04-3.53,1.53,2.84-11.11,9.07-23.63,12.39-33.61,1.72-2.53,3.57-5.14,5.52-7.73Z"/>
        <path class="cls-4" d="m816.46,63.17c-3.32,9.98-9.55,22.5-12.39,33.61h-.01c-.15-.43-4.07-11.1-5.73-25.9-1.19-10.59-1.23-23.29,2.08-35.86,6.12-23.23,21.56-34.72,21.56-34.72,0,0,8.37,21.18-5.51,62.87Z"/>
        <path class="cls-4" d="m818.32,11.99s-14.25,59.61-14.25,84.79"/>
        <path class="cls-4" d="m804.06,96.77c-.1-.05-26.37-11.1-34.85-35.39-3.9-11.17-1.27-13.34-2.6-25.72-1.84-17.1-10.79-35.36-10.79-35.36,0,0,24.6,17.36,38.77,58.27,1.35,3.89,2.61,7.99,3.74,12.31,1.66,14.8,5.58,25.47,5.73,25.89Z"/>
        <path class="cls-4" d="m869.85,20.03s-13.16,5.85-14.62,14.26c-1.42,8.16-8.01,42.91-47.63,60.96-1.15.53-2.33,1.04-3.53,1.53,2.84-11.11,9.07-23.63,12.39-33.61,1.72-2.53,3.57-5.14,5.52-7.73,3.47-4.62,7.24-9.15,11.09-12.96,21.03-20.84,36.78-22.45,36.78-22.45Z"/>
        <path class="cls-4" d="m851.99,33.11s-21.28,19.5-42.08,52.56"/>
        <path class="cls-4" d="m851.99,23.78s-6.54.27-16.27,9.33"/>
      </g>
    </g>
  </g>
</svg>